<?xml version="1.0" encoding="utf-8"?>
<!-- Generator: Adobe Illustrator 21.1.0, SVG Export Plug-In . SVG Version: 6.00 Build 0)  -->
<svg version="1.1" id="Layer" xmlns="http://www.w3.org/2000/svg" xmlns:xlink="http://www.w3.org/1999/xlink" x="0px" y="0px"
	 viewBox="0 0 200 200" enable-background="new 0 0 200 200" xml:space="preserve">
<g>
	<path fill="#FFFFFF" d="M34.5,32.4l117,67.6l-117,67.5V32.4 M22.5,7.7c-2.1,0-4,1.7-4,4v176.7c0,2.3,1.9,4,4,4c0.7,0,1.3-0.2,2-0.5
		l153-88.3c2.7-1.5,2.7-5.4,0-6.9L24.5,8.2C23.9,7.8,23.2,7.7,22.5,7.7L22.5,7.7z"/>
</g>
<g>
	<path fill="#FFFFFF" d="M182,10h-8c-1.7,0-3,1.3-3,3v174c0,1.7,1.3,3,3,3h8c1.7,0,3-1.3,3-3V13C185,11.3,183.7,10,182,10L182,10z"
		/>
</g>
</svg>
