<?xml version="1.0" encoding="utf-8"?>
<!-- Generator: Adobe Illustrator 22.0.0, SVG Export Plug-In . SVG Version: 6.00 Build 0)  -->
<svg version="1.1" id="Layer_1" xmlns="http://www.w3.org/2000/svg" xmlns:xlink="http://www.w3.org/1999/xlink" x="0px" y="0px"
	 width="1400px" height="1400px" viewBox="0 0 1400 1400" enable-background="new 0 0 1400 1400" xml:space="preserve">
<g>
	<radialGradient id="SVGID_1_" cx="700" cy="700" r="797.986" gradientUnits="userSpaceOnUse">
		<stop  offset="3.926280e-03" style="stop-color:#D9D9D9"/>
		<stop  offset="0.2836" style="stop-color:#CFCFD1"/>
		<stop  offset="0.7633" style="stop-color:#B3B5BA"/>
		<stop  offset="1" style="stop-color:#A3A6AD"/>
	</radialGradient>
	<rect fill="url(#SVGID_1_)" width="1400" height="1400"/>
	<rect x="323.7" y="136.3" opacity="0.25" fill="#88898C" width="788.6" height="1115.3"/>
	<g>
		<rect x="305.7" y="118.3" fill="#01183F" width="788.6" height="1115.3"/>
		<g>
			<defs>
				<rect id="SVGID_2_" x="305.7" y="118.3" width="788.6" height="1115.3"/>
			</defs>
			<clipPath id="SVGID_3_">
				<use xlink:href="#SVGID_2_"  overflow="visible"/>
			</clipPath>
			<g clip-path="url(#SVGID_3_)">
				<g>
					<g>
						
							<linearGradient id="SVGID_4_" gradientUnits="userSpaceOnUse" x1="235.5362" y1="589.3824" x2="1169.1865" y2="589.3824" gradientTransform="matrix(0.982 -0.1891 0.1891 0.982 -121.0588 137.4024)">
							<stop  offset="0" style="stop-color:#2CF2BA"/>
							<stop  offset="0.9961" style="stop-color:#3CE2FF"/>
						</linearGradient>
						<path fill="url(#SVGID_4_)" d="M1168.8,659.2l1.2-0.6c-0.3-0.5-29-51.6-80.3-93.9c-30.1-24.9-62-41.9-94.8-50.6
							c-41-10.9-83.5-8.8-126.3,6.3c-188.3,66.3-242.7,32.8-318-13.7c-5.7-3.5-11.6-7.2-17.7-10.8c-36.8-22.2-94.3-31.7-150-24.8
							c-48.7,6-119.8,27-182.1,92.7l1,0.9c62-65.4,132.8-86.3,181.3-92.3c55.4-6.9,112.6,2.5,149.1,24.6c6,3.6,11.9,7.3,17.7,10.8
							C587.5,531,619.9,551,666.8,557c51,6.5,115.3-4.7,202.3-35.3c42.6-15,84.8-17.1,125.5-6.2c32.6,8.7,64.3,25.6,94.3,50.4
							C1140,607.9,1168.6,658.7,1168.8,659.2z"/>
						
							<linearGradient id="SVGID_5_" gradientUnits="userSpaceOnUse" x1="235.5362" y1="571.877" x2="1169.1853" y2="571.877" gradientTransform="matrix(0.982 -0.1891 0.1891 0.982 -121.0588 137.4024)">
							<stop  offset="0" style="stop-color:#2CF2BA"/>
							<stop  offset="0.9961" style="stop-color:#3CE2FF"/>
						</linearGradient>
						<path fill="url(#SVGID_5_)" d="M1164.2,635l1.2-0.6c-0.3-0.5-28.7-50.4-79.6-91.6c-29.9-24.2-61.7-40.7-94.3-49.1
							c-40.9-10.4-83.3-8.1-126.1,7c-196.8,69.3-245.2,40-325.5-8.6c-2.5-1.5-4.9-3-7.5-4.5c-37.1-22.4-94.9-32.5-150.7-26.3
							c-49.1,5.5-120.7,25.7-182.8,91.2l1,0.9c61.8-65.2,133.1-85.4,182-90.8c55.6-6.2,113,3.8,149.9,26.1c2.5,1.5,5,3,7.5,4.5
							c80.6,48.8,129.3,78.2,326.6,8.7c42.6-15,84.7-17.3,125.3-6.9c32.5,8.3,64.1,24.7,93.8,48.8
							C1135.6,584.8,1163.9,634.5,1164.2,635z"/>
						
							<linearGradient id="SVGID_6_" gradientUnits="userSpaceOnUse" x1="235.5362" y1="554.3481" x2="1169.1847" y2="554.3481" gradientTransform="matrix(0.982 -0.1891 0.1891 0.982 -121.0588 137.4024)">
							<stop  offset="0" style="stop-color:#2CF2BA"/>
							<stop  offset="0.9961" style="stop-color:#3CE2FF"/>
						</linearGradient>
						<path fill="url(#SVGID_6_)" d="M1159.5,610.7l1.2-0.7c-0.3-0.5-28.4-49.3-79-89.4c-29.7-23.6-61.3-39.5-93.9-47.5
							c-40.7-10-83.1-7.4-125.9,7.7c-98.5,34.7-161.1,48.1-209.6,45c-45-2.9-75.6-19.6-120.7-46.8c-29.4-17.7-84.6-34.3-151.5-27.8
							c-49.6,4.9-121.7,24.4-183.6,89.7l1,0.9c61.6-65.1,133.4-84.5,182.8-89.3c66.5-6.5,121.5,10,150.7,27.6
							c45.2,27.3,75.9,44,121.3,47c48.6,3.1,111.5-10.3,210.1-45.1c42.6-15,84.6-17.6,125.1-7.6c32.4,7.9,63.8,23.8,93.4,47.3
							C1131.3,561.6,1159.2,610.2,1159.5,610.7z"/>
						
							<linearGradient id="SVGID_7_" gradientUnits="userSpaceOnUse" x1="235.5362" y1="536.7962" x2="1169.1833" y2="536.7962" gradientTransform="matrix(0.982 -0.1891 0.1891 0.982 -121.0588 137.4024)">
							<stop  offset="0" style="stop-color:#2CF2BA"/>
							<stop  offset="0.9961" style="stop-color:#3CE2FF"/>
						</linearGradient>
						<path fill="url(#SVGID_7_)" d="M1154.8,586.4l1.1-0.7c-0.3-0.5-28-48.1-78.3-87.1c-29.5-22.9-61-38.4-93.4-46
							c-40.6-9.5-82.9-6.7-125.7,8.4c-206.4,72.7-245.3,59.2-327.6,9.6c-29.7-17.9-85.3-35-152.2-29.3c-50,4.3-122.6,23-184.4,88.2
							l1,0.9c61.5-64.9,133.7-83.6,183.5-87.8c66.7-5.7,121.9,11.3,151.4,29.1c39.9,24,71.8,41.1,120,41.3
							c45.4,0.2,105.9-14.5,208.7-50.8c42.6-15,84.6-17.8,124.9-8.3c32.3,7.6,63.5,23,92.9,45.7
							C1126.9,538.5,1154.6,586,1154.8,586.4z"/>
						
							<linearGradient id="SVGID_8_" gradientUnits="userSpaceOnUse" x1="235.5362" y1="519.2226" x2="1169.182" y2="519.2226" gradientTransform="matrix(0.982 -0.1891 0.1891 0.982 -121.0588 137.4024)">
							<stop  offset="0" style="stop-color:#2CF2BA"/>
							<stop  offset="0.9961" style="stop-color:#3CE2FF"/>
						</linearGradient>
						<path fill="url(#SVGID_8_)" d="M1150.2,562.2l1.1-0.7c-0.3-0.5-27.7-47-77.6-84.9c-29.4-22.2-60.6-37.2-93-44.4
							c-40.4-9-82.6-6-125.4,9.1c-199.5,70.3-239,72.8-325,21c-30-18.1-85.9-35.7-153-30.8c-50.4,3.7-123.5,21.7-185.1,86.7l1,0.9
							c61.3-64.7,134.1-82.7,184.3-86.3c66.8-4.8,122.4,12.6,152.2,30.6c86.5,52.1,126.1,49.6,326.1-20.8c42.6-15,84.5-18,124.7-9.1
							c32.2,7.2,63.3,22,92.5,44.2C1122.6,515.4,1149.9,561.7,1150.2,562.2z"/>
						
							<linearGradient id="SVGID_9_" gradientUnits="userSpaceOnUse" x1="235.5362" y1="501.6285" x2="1169.1814" y2="501.6285" gradientTransform="matrix(0.982 -0.1891 0.1891 0.982 -121.0588 137.4024)">
							<stop  offset="0" style="stop-color:#2CF2BA"/>
							<stop  offset="0.9961" style="stop-color:#3CE2FF"/>
						</linearGradient>
						<path fill="url(#SVGID_9_)" d="M1145.5,537.9l1.1-0.7c-0.3-0.5-27.3-45.9-77-82.6c-29.2-21.6-60.3-36-92.5-42.9
							c-40.3-8.6-82.4-5.3-125.2,9.8c-201.1,70.8-237.3,83.6-322.3,32.3c-30.3-18.3-86.6-36.3-153.7-32.3
							c-50.9,3.1-124.4,20.3-185.9,85.2l1,0.9c61.2-64.6,134.4-81.8,185-84.8c66.9-4,122.9,14,153,32.1
							c85.5,51.6,121.8,38.8,323.4-32.2c42.6-15,84.5-18.3,124.5-9.7c32,6.8,63,21.2,92,42.6
							C1118.3,492.3,1145.2,537.4,1145.5,537.9z"/>
					</g>
					
						<linearGradient id="SVGID_10_" gradientUnits="userSpaceOnUse" x1="701.546" y1="764.9429" x2="701.546" y2="933.0045" gradientTransform="matrix(-1 0 0 -1 1406 1650.8009)">
						<stop  offset="0" style="stop-color:#2CF2BA"/>
						<stop  offset="0.9961" style="stop-color:#3CE2FF"/>
					</linearGradient>
					<path fill="url(#SVGID_10_)" d="M1149.6,742c0,0-68.7,144.1-236.8,104c-182.3-43.4-220.1-80-336.2-33.3
						c-111.1,44.7-152.1-53.4-310.8,18.7L254,600.3h900.8L1149.6,742z"/>
					<linearGradient id="SVGID_11_" gradientUnits="userSpaceOnUse" x1="725.7975" y1="415.3125" x2="725.7975" y2="576.5725">
						<stop  offset="0" style="stop-color:#FFBD8F"/>
						<stop  offset="0.2325" style="stop-color:#FBA792"/>
						<stop  offset="0.7139" style="stop-color:#F06F99"/>
						<stop  offset="0.9961" style="stop-color:#E94B9E"/>
					</linearGradient>
					<path fill="url(#SVGID_11_)" d="M280.7,564.8c0,0,124.5-143.1,267.6-60.9c162.5,93.3,286.1,2.6,394.8-47.7
						s111.3,119.2,233.2,98v135.1H275.4L280.7,564.8z"/>
					<linearGradient id="SVGID_12_" gradientUnits="userSpaceOnUse" x1="749.496" y1="315.7342" x2="749.496" y2="920.2981">
						<stop  offset="0" style="stop-color:#ED40ED"/>
						<stop  offset="0.1071" style="stop-color:#E741EE"/>
						<stop  offset="0.2434" style="stop-color:#D844EF"/>
						<stop  offset="0.3957" style="stop-color:#BE49F2"/>
						<stop  offset="0.5595" style="stop-color:#994FF6"/>
						<stop  offset="0.7306" style="stop-color:#6B58FA"/>
						<stop  offset="0.8811" style="stop-color:#3C60FF"/>
					</linearGradient>
					<path fill="url(#SVGID_12_)" d="M243.4,609.8c7.9,2.6,37.1-34.4,116.6-45c79.5-10.6,106,15.9,201.4-21.2s79.5-127.2,193.4-21.2
						s235.8-21.2,262.3-23.8c0,0,26.5-21.2,58.3,15.9c31.8,37.1,180.2,50.3,180.2,50.3v161.9H246.1L243.4,609.8z"/>
					<linearGradient id="SVGID_13_" gradientUnits="userSpaceOnUse" x1="714.6664" y1="911.879" x2="714.6664" y2="537.6848">
						<stop  offset="0" style="stop-color:#ED40ED"/>
						<stop  offset="0.1071" style="stop-color:#E741EE"/>
						<stop  offset="0.2434" style="stop-color:#D844EF"/>
						<stop  offset="0.3957" style="stop-color:#BE49F2"/>
						<stop  offset="0.5595" style="stop-color:#994FF6"/>
						<stop  offset="0.7306" style="stop-color:#6B58FA"/>
						<stop  offset="0.8811" style="stop-color:#3C60FF"/>
					</linearGradient>
					<path fill="url(#SVGID_13_)" d="M206,736.6c118.7-118.6,352.4-126.1,421.7-81.8c87.4,56.1,107.7,170,323.2,100.7
						c198.5-63.8,278.8,165.1,278.8,165.1l-31.5-268.1c0,0-154.6-158.2-329-43.9c-189.3,124.1-237.8,183-336.9,152.2
						c-78.5-24.4-249.6-6.8-332.6,139.1L206,736.6z"/>
					<g>
						<path fill="#FFFFFF" d="M233.5,918.1l-1.3-0.4c0.2-0.6,18.7-56.1,61.1-107.4c24.9-30.1,53-52.9,83.5-67.6
							c38.2-18.5,80.3-24.4,125.2-17.7c197.4,29.5,244.5-13.7,309.6-73.6c4.9-4.5,10.1-9.2,15.3-14c31.9-28.7,86.6-48.9,142.6-52.7
							c49-3.3,122.8,3.9,196.3,56.6l-0.8,1.1c-73.2-52.5-146.7-59.6-195.5-56.4c-55.7,3.7-110.1,23.8-141.8,52.3
							c-5.2,4.7-10.4,9.4-15.3,13.9c-32.5,29.8-60.5,55.6-105.4,70.3c-48.9,16.1-114.1,17.2-205.3,3.6
							c-44.6-6.7-86.5-0.7-124.4,17.6c-30.4,14.7-58.3,37.3-83.1,67.3C252.1,862.2,233.6,917.5,233.5,918.1z"/>
						<path fill="#FFFFFF" d="M233.5,893.4l-1.3-0.4c0.2-0.5,18.6-54.9,60.9-105c24.8-29.4,52.9-51.7,83.4-66
							c38.1-18,80.2-23.7,125.1-17c206.3,30.8,248.3-7.1,318-70c2.1-1.9,4.3-3.9,6.5-5.8c32.2-29,87-49.8,143-54.3
							c49.3-3.9,123.4,2.4,196.8,55l-0.8,1.1c-73-52.4-146.8-58.7-195.9-54.8c-55.7,4.5-110.2,25.1-142.3,54c-2.2,2-4.3,3.9-6.5,5.8
							c-69.9,63.1-112.2,101.3-319.1,70.3c-44.6-6.7-86.5-1-124.4,16.9c-30.3,14.3-58.2,36.4-82.9,65.7
							C252,838.7,233.6,892.8,233.5,893.4z"/>
						<path fill="#FFFFFF" d="M233.5,868.7l-1.3-0.4c0.2-0.5,18.5-53.8,60.6-102.7c24.7-28.8,52.7-50.4,83.2-64.4
							c38.1-17.5,80.2-23,125-16.3c103.2,15.4,167.3,16.8,214.3,4.6c43.7-11.4,70.6-33.6,109.7-68.7c25.5-23,76.6-49.7,143.5-55.9
							c49.6-4.6,124.1,0.9,197.3,53.4l-0.8,1.1c-72.8-52.2-147-57.7-196.4-53.1c-66.6,6.2-117.4,32.8-142.7,55.6
							c-39.2,35.3-66.2,57.6-110.2,69c-47.2,12.3-111.4,10.9-214.9-4.5c-44.6-6.7-86.4-1.2-124.3,16.2
							c-30.3,13.9-58.1,35.5-82.8,64.1C251.9,815.1,233.6,868.1,233.5,868.7z"/>
						<path fill="#FFFFFF" d="M233.5,843.9l-1.3-0.4c0.2-0.5,18.4-52.6,60.4-100.3c24.7-28.1,52.6-49.2,83.1-62.8
							c38-17,80.1-22.2,125-15.5c216.4,32.3,252.1,11.7,323.5-52.5c25.8-23.2,77.1-50.5,144-57.5c49.9-5.3,124.7-0.6,197.7,51.8
							l-0.8,1.1c-72.6-52.1-147.1-56.8-196.8-51.5c-66.5,7-117.6,34.2-143.2,57.2c-34.6,31.2-62.8,53.9-110,63.2
							c-44.5,8.8-106.7,5.8-214.6-10.4c-44.6-6.7-86.4-1.5-124.2,15.4c-30.3,13.5-58,34.6-82.6,62.5
							C251.8,791.6,233.6,843.4,233.5,843.9z"/>
						<path fill="#FFFFFF" d="M233.5,819.2l-1.2-0.4c0.2-0.5,18.3-51.4,60.2-98c24.6-27.4,52.5-48,82.9-61.2
							c38-16.5,80-21.5,124.9-14.8c209.2,31.3,248.4,26.3,323.1-40.9c26-23.4,77.6-51.3,144.4-59.2c50.2-5.9,125.4-2.1,198.2,50.1
							l-0.8,1.1c-72.5-52-147.3-55.8-197.3-49.9c-66.5,7.9-117.8,35.6-143.7,58.8c-75,67.5-114.4,72.5-324.1,41.2
							c-44.6-6.7-86.4-1.7-124.1,14.7c-30.2,13.1-58,33.6-82.4,60.9C251.7,768,233.6,818.7,233.5,819.2z"/>
						<path fill="#FFFFFF" d="M233.5,794.5l-1.2-0.4c0.2-0.5,18.2-50.2,60-95.7c24.6-26.7,52.4-46.8,82.8-59.6
							c37.9-16,79.9-20.8,124.8-14.1c210.8,31.5,248.8,37.2,322.6-29.2c26.3-23.7,78.1-52,144.9-60.8c50.5-6.6,126-3.6,198.7,48.5
							l-0.8,1.1c-72.3-51.8-147.4-54.9-197.7-48.3c-66.4,8.7-118,36.9-144.1,60.5C749,663.3,710.9,657.6,499.6,626
							c-44.6-6.7-86.4-2-124.1,14c-30.2,12.8-57.9,32.7-82.3,59.3C251.6,744.5,233.6,794,233.5,794.5z"/>
					</g>
				</g>
				<path fill="#FFFFFF" d="M902.2,405.4l-33.9-19.6v-39.1l33.9-19.6l33.9,19.6v39.1L902.2,405.4z M869.3,385.3l32.9,19l32.9-19v-38
					l-32.9-19l-32.9,19V385.3z"/>
				<path fill="#FFFFFF" d="M1020.8,669.4l-33.9-19.6v-39.1l33.9-19.6l33.9,19.6v39.1L1020.8,669.4z M987.9,649.3l32.9,19l32.9-19
					v-38l-32.9-19l-32.9,19V649.3z"/>
				<path fill="#FFFFFF" d="M365.3,772l-33.9-19.6v-39.1l0.2-0.1l33.7-19.4l33.9,19.6v39.1l-0.2,0.1L365.3,772z M332.4,751.9
					l32.9,19l32.9-19v-38l-32.9-19l-32.9,19V751.9z"/>
				<path fill="#FFFFFF" d="M472.3,958.2l-33.9-19.6v-39.1l0.2-0.1l33.7-19.4l33.9,19.6v39.1l-0.2,0.1L472.3,958.2z M439.4,938.1
					l32.9,19l32.9-19v-38l-32.9-19l-32.9,19V938.1z"/>
				<path fill="#FFFFFF" d="M469.7,446.9l-33.9-19.6v-39.1l33.9-19.6l33.9,19.6v39.1L469.7,446.9z M436.8,426.7l32.9,19l32.9-19v-38
					l-32.9-19l-32.9,19V426.7z"/>
				<path fill="#FFFFFF" d="M1039.3,844.3l-33.9-19.6v-39.1l0.2-0.1l33.7-19.4l33.9,19.6v39.1l-0.2,0.1L1039.3,844.3z M1006.4,824.2
					l32.9,19l32.9-19v-38l-32.9-19l-32.9,19V824.2z"/>
				<path fill="#FFFFFF" d="M893.7,943.7l-20.7-12v-23.9l0.2-0.1l20.5-11.8l20.7,12v23.9l-0.2,0.1L893.7,943.7z M874,931.2
					l19.7,11.4l19.7-11.4v-22.8L893.7,897L874,908.4V931.2z"/>
				<path fill="#FFFFFF" d="M650.5,380.5l-20.7-12v-23.9l20.7-12l20.7,12v23.9L650.5,380.5z M630.8,367.9l19.7,11.4l19.7-11.4v-22.8
					l-19.7-11.4l-19.7,11.4V367.9z"/>
				<path fill="#FFFFFF" d="M315.9,526.7l-20.7-12v-23.9l20.7-12l20.7,12v23.9L315.9,526.7z M296.2,514.2l19.7,11.4l19.7-11.4v-22.8
					L315.9,480l-19.7,11.4V514.2z"/>
			</g>
			<g clip-path="url(#SVGID_3_)">
				<linearGradient id="SVGID_14_" gradientUnits="userSpaceOnUse" x1="302.468" y1="295.1198" x2="478.7067" y2="471.3585">
					<stop  offset="0" style="stop-color:#FFBD8F"/>
					<stop  offset="0.2325" style="stop-color:#FBA792"/>
					<stop  offset="0.7139" style="stop-color:#F06F99"/>
					<stop  offset="0.9961" style="stop-color:#E94B9E"/>
				</linearGradient>
				<polygon fill="url(#SVGID_14_)" points="403.7,366.1 381.6,404.4 425.8,404.4 				"/>
				<linearGradient id="SVGID_15_" gradientUnits="userSpaceOnUse" x1="1186.7886" y1="690.7628" x2="914.0476" y2="963.5038">
					<stop  offset="0" style="stop-color:#FFBD8F"/>
					<stop  offset="0.2325" style="stop-color:#FBA792"/>
					<stop  offset="0.7139" style="stop-color:#F06F99"/>
					<stop  offset="0.9961" style="stop-color:#E94B9E"/>
				</linearGradient>
				<polygon fill="url(#SVGID_15_)" points="985.3,827.2 937.6,909.7 1032.9,909.7 				"/>
				<linearGradient id="SVGID_16_" gradientUnits="userSpaceOnUse" x1="460.0335" y1="794.6382" x2="593.1709" y2="927.7756">
					<stop  offset="0" style="stop-color:#FFBD8F"/>
					<stop  offset="0.2325" style="stop-color:#FBA792"/>
					<stop  offset="0.7139" style="stop-color:#F06F99"/>
					<stop  offset="0.9961" style="stop-color:#E94B9E"/>
				</linearGradient>
				<polygon fill="url(#SVGID_16_)" points="518.5,814 489.8,863.5 547.1,863.5 				"/>
				<linearGradient id="SVGID_17_" gradientUnits="userSpaceOnUse" x1="911.7788" y1="591.949" x2="1142.2882" y2="822.4583">
					<stop  offset="0" style="stop-color:#FFBD8F"/>
					<stop  offset="0.2325" style="stop-color:#FBA792"/>
					<stop  offset="0.7139" style="stop-color:#F06F99"/>
					<stop  offset="0.9961" style="stop-color:#E94B9E"/>
				</linearGradient>
				<polygon fill="url(#SVGID_17_)" points="1008.6,649.7 980,699.3 1037.2,699.3 				"/>
				<linearGradient id="SVGID_18_" gradientUnits="userSpaceOnUse" x1="299.3894" y1="563.0738" x2="441.5556" y2="705.24">
					<stop  offset="0" style="stop-color:#FFBD8F"/>
					<stop  offset="0.2325" style="stop-color:#FBA792"/>
					<stop  offset="0.7139" style="stop-color:#F06F99"/>
					<stop  offset="0.9961" style="stop-color:#E94B9E"/>
				</linearGradient>
				<polygon fill="url(#SVGID_18_)" points="359.1,598.7 341.5,629.3 376.8,629.3 				"/>
				<linearGradient id="SVGID_19_" gradientUnits="userSpaceOnUse" x1="291.4409" y1="857.618" x2="433.607" y2="999.7842">
					<stop  offset="0" style="stop-color:#FFBD8F"/>
					<stop  offset="0.2325" style="stop-color:#FBA792"/>
					<stop  offset="0.7139" style="stop-color:#F06F99"/>
					<stop  offset="0.9961" style="stop-color:#E94B9E"/>
				</linearGradient>
				<polygon fill="url(#SVGID_19_)" points="351.2,893.2 333.5,923.8 368.8,923.8 				"/>
				<linearGradient id="SVGID_20_" gradientUnits="userSpaceOnUse" x1="768.7041" y1="766.8182" x2="974.0813" y2="972.1954">
					<stop  offset="0" style="stop-color:#ED40ED"/>
					<stop  offset="0.1071" style="stop-color:#E741EE"/>
					<stop  offset="0.2434" style="stop-color:#D844EF"/>
					<stop  offset="0.3957" style="stop-color:#BE49F2"/>
					<stop  offset="0.5595" style="stop-color:#994FF6"/>
					<stop  offset="0.7306" style="stop-color:#6B58FA"/>
					<stop  offset="0.8811" style="stop-color:#3C60FF"/>
				</linearGradient>
				<polygon fill="url(#SVGID_20_)" points="870.8,829.9 842.2,879.4 899.5,879.4 				"/>
				<linearGradient id="SVGID_21_" gradientUnits="userSpaceOnUse" x1="733.3037" y1="296.6611" x2="882.1456" y2="445.503">
					<stop  offset="0" style="stop-color:#ED40ED"/>
					<stop  offset="0.1071" style="stop-color:#E741EE"/>
					<stop  offset="0.2434" style="stop-color:#D844EF"/>
					<stop  offset="0.3957" style="stop-color:#BE49F2"/>
					<stop  offset="0.5595" style="stop-color:#994FF6"/>
					<stop  offset="0.7306" style="stop-color:#6B58FA"/>
					<stop  offset="0.8811" style="stop-color:#3C60FF"/>
				</linearGradient>
				<polygon fill="url(#SVGID_21_)" points="807.3,342.4 786.6,378.3 828.1,378.3 				"/>
				<linearGradient id="SVGID_22_" gradientUnits="userSpaceOnUse" x1="1018.0096" y1="225.5226" x2="1018.0096" y2="449.9991">
					<stop  offset="0" style="stop-color:#ED40ED"/>
					<stop  offset="0.1071" style="stop-color:#E741EE"/>
					<stop  offset="0.2434" style="stop-color:#D844EF"/>
					<stop  offset="0.3957" style="stop-color:#BE49F2"/>
					<stop  offset="0.5595" style="stop-color:#994FF6"/>
					<stop  offset="0.7306" style="stop-color:#6B58FA"/>
					<stop  offset="0.8811" style="stop-color:#3C60FF"/>
				</linearGradient>
				<polygon fill="url(#SVGID_22_)" points="1018,442.8 995.9,404.5 1040.1,404.5 				"/>
				<linearGradient id="SVGID_23_" gradientUnits="userSpaceOnUse" x1="732.8011" y1="284.4669" x2="526.1205" y2="491.1474">
					<stop  offset="0" style="stop-color:#ED40ED"/>
					<stop  offset="0.1071" style="stop-color:#E741EE"/>
					<stop  offset="0.2434" style="stop-color:#D844EF"/>
					<stop  offset="0.3957" style="stop-color:#BE49F2"/>
					<stop  offset="0.5595" style="stop-color:#994FF6"/>
					<stop  offset="0.7306" style="stop-color:#6B58FA"/>
					<stop  offset="0.8811" style="stop-color:#3C60FF"/>
				</linearGradient>
				<polygon fill="url(#SVGID_23_)" points="591.4,456 569.3,417.7 613.5,417.7 				"/>
				
					<linearGradient id="SVGID_24_" gradientUnits="userSpaceOnUse" x1="570.2839" y1="904.9968" x2="624.7132" y2="904.9968" gradientTransform="matrix(-1 0 0 -1 1019.1719 1777.4448)">
					<stop  offset="0" style="stop-color:#2CF2BA"/>
					<stop  offset="0.9961" style="stop-color:#3CE2FF"/>
				</linearGradient>
				<polygon fill="url(#SVGID_24_)" points="421.7,896 448.9,848.9 394.5,848.9 				"/>
			</g>
		</g>
		<g>
			
				<text transform="matrix(1 0 0 1 624.5874 259.1818)" fill="#BBDDFF" font-family="'OpenSans-Semibold'" font-size="18.6038px" letter-spacing="9">PRESENTS</text>
		</g>
		<g>
			
				<text transform="matrix(1 0 0 1 545.2632 1166.7717)" fill="#BBDDFF" font-family="'OpenSans-Semibold'" font-size="18.8309px" letter-spacing="3">WWW.YOURWEBSITE.COM</text>
		</g>
		<g>
			<rect x="444" y="1054.6" fill="none" width="512.1" height="74.9"/>
			<text transform="matrix(1 0 0 1 460.5884 1066.0295)"><tspan x="0" y="0" fill="#BBDDFF" font-family="'OpenSans-Semibold'" font-size="14.9745px">Lorem ipsum dolor sit amet, consectetuer adipiscing elit, sed diam </tspan><tspan x="-4.6" y="18" fill="#BBDDFF" font-family="'OpenSans-Semibold'" font-size="14.9745px">nonummy nibh euismod tincidunt ut laoreet dolore magna aliquam </tspan><tspan x="5.6" y="35.9" fill="#BBDDFF" font-family="'OpenSans-Semibold'" font-size="14.9745px">erat volutpat. Ut wisi enim ad minim veniam, quis nostrud exerci </tspan><tspan x="171.7" y="53.9" fill="#BBDDFF" font-family="'OpenSans-Semibold'" font-size="14.9745px">tation ullamcorper </tspan></text>
		</g>
		<g>
			<text transform="matrix(1 0 0 1 541.2944 1018.7297)" fill="#BBDDFF" font-family="'OpenSans-Light'" font-size="39.113px">YOUR DATE HERE</text>
		</g>
		<polygon fill="#FFFFFF" points="486.3,528.8 486.3,775.5 700,898.9 913.7,775.5 913.7,528.8 700,405.4 		"/>
		<g>
			<g>
				<text transform="matrix(1 0 0 1 561.3794 630.3557)" fill="#7A18C6" font-family="'OpenSans-Light'" font-size="85.2765px">DANCE</text>
			</g>
			<text transform="matrix(1 0 0 1 540.1821 708.3947)" fill="#7A18C6" font-family="'OpenSans-Bold'" font-size="85.3328px"> MUSIC</text>
		</g>
		<text transform="matrix(1 0 0 1 631.9937 767.9767)"><tspan x="0" y="0" fill="#F06E99" font-family="'Yellowtail'" font-size="38.4986px">F</tspan><tspan x="21.6" y="0" fill="#F06E99" font-family="'Yellowtail'" font-size="38.4986px">e</tspan><tspan x="33.6" y="0" fill="#F06E99" font-family="'Yellowtail'" font-size="38.4986px">s</tspan><tspan x="47.8" y="0" fill="#F06E99" font-family="'Yellowtail'" font-size="38.4986px">ti</tspan><tspan x="64.6" y="0" fill="#F06E99" font-family="'Yellowtail'" font-size="38.4986px">v</tspan><tspan x="78.4" y="0" fill="#F06E99" font-family="'Yellowtail'" font-size="38.4986px">al</tspan></text>
	</g>
</g>
</svg>
